<svg id="Layer_1" data-name="Layer 1" xmlns="http://www.w3.org/2000/svg" viewBox="0 0 1600 1600"><defs><style>.cls-1{fill:#f6f7f7;}.cls-2{fill:#e2e3e4;}.cls-3{fill:#d96750;}.cls-4{fill:#b9babc;}</style></defs><title>Stickers</title><path class="cls-1" d="M43.79,1482.31A94.34,94.34,0,0,0,138,1576.54H1460.41a94.33,94.33,0,0,0,94.23-94.23V753.08H43.79Z"/><path class="cls-2" d="M20.33,729.62v752.69A117.7,117.7,0,0,0,138,1600H1460.41a117.69,117.69,0,0,0,117.69-117.69V729.62Zm1534.31,752.69a94.33,94.33,0,0,1-94.23,94.23H138a94.34,94.34,0,0,1-94.24-94.23V753.08H1554.64Z"/><path class="cls-3" d="M1460.41,107.92h-3.91v87.19a19.94,19.94,0,0,1-39.88,0V107.92H1141.35v87.19a19.94,19.94,0,1,1-39.88,0V107.92H828.54v87.19a20,20,0,0,1-19.94,19.94h0a20,20,0,0,1-19.94-19.94V107.92H515v87.19a20,20,0,0,1-20,19.94h0a20,20,0,0,1-19.94-19.94V107.92H197.85v87.19a19.94,19.94,0,0,1-39.88,0V107.92H138A117.7,117.7,0,0,0,20.33,225.61v504H1578.1v-504A117.69,117.69,0,0,0,1460.41,107.92Z"/><path class="cls-4" d="M177.91,215.05a20,20,0,0,0,19.94-19.94V19.94A20,20,0,0,0,177.91,0Z"/><path class="cls-2" d="M177.91,215.05V0A20,20,0,0,0,158,19.94V195.11A20,20,0,0,0,177.91,215.05Z"/><path class="cls-4" d="M495,215.05a20,20,0,0,0,20-19.94V19.94A20,20,0,0,0,495,0Z"/><path class="cls-2" d="M495,215.05h0V0h0a20,20,0,0,0-19.94,19.94V195.11A20,20,0,0,0,495,215.05Z"/><path class="cls-4" d="M808.6,215.05a20,20,0,0,0,19.94-19.94V19.94A20,20,0,0,0,808.6,0Z"/><path class="cls-2" d="M808.6,215.05h0V0h0a20,20,0,0,0-19.94,19.94V195.11A20,20,0,0,0,808.6,215.05Z"/><path class="cls-4" d="M1121.41,215.05a20,20,0,0,0,19.94-19.94V19.94A20,20,0,0,0,1121.41,0Z"/><path class="cls-2" d="M1121.41,215.05V0a20,20,0,0,0-19.94,19.94V195.11A20,20,0,0,0,1121.41,215.05Z"/><path class="cls-4" d="M1436.56,215.05a20,20,0,0,0,19.94-19.94V19.94A20,20,0,0,0,1436.56,0Z"/><path class="cls-2" d="M1436.56,215.05V0a20,20,0,0,0-19.94,19.94V195.11A20,20,0,0,0,1436.56,215.05Z"/></svg>