<svg xmlns="http://www.w3.org/2000/svg" xmlns:xlink="http://www.w3.org/1999/xlink" viewBox="0 0 1600 1238.86"><defs><style type="text/css">.cls-1{fill:#494949;}.cls-2{fill:url(#linear-gradient);}</style><linearGradient id="linear-gradient" x1="371.48" y1="784.94" x2="1720.24" y2="784.94" gradientUnits="userSpaceOnUse"><stop offset="0" stop-color="#fcba61"/><stop offset="0.43" stop-color="#db861f"/><stop offset="0.66" stop-color="#fb9d1e"/><stop offset="1" stop-color="#fcba61"/></linearGradient></defs><title>Asset 2</title><g id="Layer_2" data-name="Layer 2"><g id="Layer_1-2" data-name="Layer 1"><path d="M1156,892.21c15,56.8,22,81.9,22,81.9S1024,1040,800,1040s-386.2-63.11-386.2-63.11L440,892.67C179,922.78,0,984.61,0,1056c0,101,358.17,182.86,800,182.86S1600,1157,1600,1056C1600,984.24,1419.14,922.15,1156,892.21Z"/><path d="M1130.65,803.94,1024,420.57l73.14-224,228.57-82.28L1472,137.14,1312,0,900.57,41.14,585.14,426.35l-134,430.73,15.36-49.36S803.31,924.82,1130.65,803.94Z"/><path class="cls-1" d="M800,1040c224,0,378-65.89,378-65.89s-7-25.1-22-81.9c-6.32-23.89-14.07-53.36-23.34-89l-2,.71c-327.34,120.88-664.2,3.78-664.2,3.78l-15.36,49.36L440,892.67,413.8,976.89S576,1040,800,1040Z"/><path class="cls-2" d="M767.36,934.94c24.5-47.46,176-260.23,176-283.71,0-51.05-63.19-77.55-117.77-77.55-65.6,0-168.35,44-165,64.81s39.46,24.27,64.39,22.94,106.72-29.07,120.79-29.07c6.14,0,25.16,0,25.16,8.16,0,20.41-185.84,218.9-185.84,306.68,0,28.06,28.25,49,60.73,49,71.72,0,224.25-62,216.09-87.8S820.09,930.37,767.36,934.94Z"/></g></g></svg>