<?xml version="1.0" encoding="utf-8"?>
<svg id="Layer_1" data-name="Layer 1" xmlns="http://www.w3.org/2000/svg" xmlns:xlink="http://www.w3.org/1999/xlink" viewBox="0 0 1447.22 638.48"><defs><style type="text/css">.cls-1,.cls-2{fill:#27272d;}.cls-1{fill-rule:evenodd;}.cls-3{fill:url(#linear-gradient);}.cls-4{fill:url(#linear-gradient-2);}.cls-5{fill:url(#linear-gradient-3);}.cls-6{fill:url(#linear-gradient-4);}.cls-7{fill:url(#linear-gradient-5);}.cls-8{fill:url(#linear-gradient-6);}</style><linearGradient id="linear-gradient" x1="209.32" y1="80.35" x2="196.02" y2="452.8" gradientUnits="userSpaceOnUse"><stop offset="0" stop-color="#ffe380"/><stop offset="1" stop-color="#ffc500"/></linearGradient><linearGradient id="linear-gradient-2" x1="331.94" y1="84.73" x2="318.64" y2="457.17" xlink:href="#linear-gradient"/><linearGradient id="linear-gradient-3" x1="718.14" y1="98.52" x2="704.84" y2="470.97" xlink:href="#linear-gradient"/><linearGradient id="linear-gradient-4" x1="725.74" y1="98.79" x2="712.44" y2="471.24" xlink:href="#linear-gradient"/><linearGradient id="linear-gradient-5" x1="1198.1" y1="115.66" x2="1184.8" y2="488.11" xlink:href="#linear-gradient"/><linearGradient id="linear-gradient-6" x1="1075.48" y1="111.28" x2="1062.18" y2="483.73" xlink:href="#linear-gradient"/></defs><title>Artboard 50</title><path class="cls-1" d="M1288.18,354.17c-1.93-6.31-10.14-8.84-23.79-9.24-166.84-4.7-215,7.47-258.54-2.4,47.41-7.75,43.64-.72,113.34-4.53-7.74-50,5.46-42.52-81.24-45.62,25.65-6.52,56.7-5.41,86.52-8.79-13.06-48.33,3.31-42.07-90.45-43.13-55.42-.62-110.39-.39-163.88,3.3-4.71.33-10.08-.26-15.16-.41a15.9,15.9,0,0,1,9.42-3.27c22.6-1,45.29-1.8,67.87-2.81,17.25-.79,36.69,1.76,51.17-3.41a17.87,17.87,0,0,1,7.39-.27c23,4.62,78.66-8.55,119.53-3,19.13,2.59,11.36-5.93,11.47-20.28.06-7.93-7.39-11.8-25.36-11.77-52.55.12-105.3-.08-157.43,1-133.62,2.73-140.89,9-153.31,2.87,4.2-.88,7-1.81,10.34-2.11C961.35,185,944.42,201,936.64,153.06c-3.3-20.56-68.15-5.65-145.71-8.22-.44-.62-.89-1.23-1.33-1.84,28-6.23,55.79-12.66,84.21-18.59,50.32-10.52,66.22-4.16,60.14-18.15-2.4-5.49-5.73-11.06-14.73-15.69-95,9.89-253.29,4.93-354.33,19.13-30.82,4.33-173,18.7-251.71,40.7-11.48,3.21-13.43,10.16-6.54,15.15,3.66,2.6,8.12,4.32,14.82,3.12,142.16-25.49,274.21-48.25,465-52.09-79.87,29.7-155.33,29.51-186.83,42-21.76,8.6-33.26.89-67,9.58C504.32,175.41,349.76,201,317,203.46c-16.19,1.23-18.86,1.32-13.32,8.75,40.49,54.29,30.62,50.2,74.74,44.28-7,3.73-4.4,7.61-1.35,11.4,12.51,15.45,27.12,30.14,50.78,28.82.18-.1.3-.23.47-.33.59-1.71.39-3.92,2.68-4.56,22.65-6.33,45.72-12.38,72.9-15.16.6-.15,1.17-.32,1.75-.47.31,0,.63-.05.92-.06,10.16-6.41,27.53-7.3,45.31-9.85-10,5.53-26.47,8.91-45.31,9.85-.16.11-.37.18-.53.29l-2.14.24c-12.57,3.39-25,6.89-37.84,10.09-16.85,4.16-33.66,6.82-37.74,9.63a1.36,1.36,0,0,1-.17.49c-10.56-.08-142,34.36-191.57,51.07,8.26,9.45-1.88,1.93,33.3,25.88,16.61,11.3-4.16,7.68,7.61,17.65,32.23,27.29,46,34.79,60.44,40.37,14.06-4.87,21.48-12,36.63-15.57,13.87-3.27,27.11-7,40.21-10.81,21-6-5.45-7.82,23.1-12.15,84.06-12.75,74.8-14.71,83.38-10.94.68.3,7-1,8.25-2.21,9.31-9,25.46-3.12,44.6-5.68,62.84-8.45,57.22-9,102.67-21.5,1.31-.36,3.67,0,6,0,1.82,1.58,3.59,3.1,5.29,4.55,4.45,0,8.26,0,11.92,0-123.86,28.57-215.34,47-318.93,85.69-9.73,3.65-9.28,5.43-.71,11,16.84,10.92,33.74,24.72,42.84,28.52,16.1,6.73,15-2.14,22.8-6.07,27.89-14.12,106.47-39.46,144.93-40.23,5.13-.1,9.83-2,13.86-3.57,28.4-10.95,36-3.08,53.46-10.78,27.79-12.25,94.28-11.79,113.25-18.51a30.89,30.89,0,0,1,8.21-1.61c110.83-6.49,92.16-5.61,106.53-3.76C735.94,424.82,115,543.69,275.36,584.72c2.78-2.77,3.93-5.8,7.87-7.52,73.22-32,50.29-18.62,65.33-30.64,67.15-9,13.47.28,69.89-16.86,52-15.76,60.16-10.81,66.59-18,2-2.19,10.74-3.59,17.14-3.71,17.85-.3,28.48-5.49,41.28-9.27,3.27-1,5.92-3,9.46-3,26.57-.54,20-10,61.07-16.26,10.23-1.57,22.26-1.47,28.34-6.13a5.79,5.79,0,0,1,3.16-.7c14.83,1.58,22.78-3.36,33.83-5.26,15.76-2.72,33.34-4.85,45.22-9.63,9.11-3.7,51-15,72-14,21.32,1,8.58-8.42,38.64-7.6,6.64.18,15.42-.29,18.81-2.18,10.58-6,125.59-18.39,133.9-19.69,72.09-11.37,26.25,1.78,118.78-16.31,6.93-1.36,72.87-6.59,76.65-3.12,8.13,7.55,12.13.43,28.75.42,7.84,0,15.4.19,20.14-2.92,1.24-.77,4.06-1.18,6.45-1.33,18.28-1.22,36.64-2.33,56.54-3.59C1292.84,375.73,1291.52,365,1288.18,354.17Zm-935.69,8-3.15-2.51c23.32-6.71,62-18,88.24-22.57,53.94-9.42,58.38-22.26,99.87-20.84,7,.24,13.74-.84,21.73-.2C553.16,317.91,359.11,360.67,352.49,362.15Zm237.88-101c-.54-.48-1.14-1-1.74-1.44l19.82-3.94c.66.68,1.35,1.37,2,2.06C603.75,258.9,597.08,260,590.37,261.13ZM717.76,352c-.63-1.25-1.93-2.58-1.29-2.79,7.49-2.52,16.63-1.94,25.71-1.4m6,98.4-1.61-1.75,15.81-2.4c.93.82,1.83,1.64,2.75,2.47ZM970.6,346.92l16.95-2.55C984.36,348.66,984.36,348.66,970.6,346.92Z"/><path class="cls-2" d="M275.51,585.27l-.28-.07c-18.16-4.65-26.86-10.34-26.6-17.4.82-21.67,91.57-53.71,269.73-95.24,162.11-37.78,333.95-68.83,364.72-74.31l-1.45-.25c-6.51-1.14-6.51-1.14-78.92,3.11l-23,1.35a30.49,30.49,0,0,0-8.08,1.58c-8,2.82-23.91,4.36-42.38,6.13-25.64,2.47-54.7,5.26-70.83,12.37-8.08,3.57-14,3.83-20.92,4.13-8.08.35-17.25.75-32.56,6.65l-.65.26c-4,1.52-8.44,3.26-13.38,3.35-39.33.79-118.48,26.89-144.71,40.18a18.45,18.45,0,0,0-5.14,4.17c-3.46,3.64-6.45,6.78-18.08,1.92-5.59-2.34-14-8.31-23.62-15.22-6.26-4.47-12.73-9.08-19.3-13.35-4.52-2.92-6.93-4.86-6.73-6.8.19-1.69,2.23-3.06,7.54-5,89.48-33.43,169.13-51.56,270-74.51q21.7-4.95,44.8-10.24h-7.77l-.71-.6-4.59-3.95c-.69,0-1.39-.05-2.07-.09a13.89,13.89,0,0,0-3.57.07c-8.55,2.35-15.18,4.24-21,5.9-24.77,7.07-30.66,8.75-81.71,15.62a117.85,117.85,0,0,1-19.79.55c-10.5-.32-18.79-.57-24.53,5-1.34,1.31-7.86,2.72-8.8,2.31l-1-.44c-3.88-1.75-3.88-1.75-18.42.88-11.06,2-29.56,5.36-63.69,10.53-8.64,1.31-13.06,2.52-13.89,3.81-.25.38-.17.76,0,1.39.62,2.28.34,4.24-9.14,6.94-13.37,3.86-26.51,7.58-40.23,10.82-8.58,2-14.57,5.15-20.92,8.45a111.33,111.33,0,0,1-15.66,7.1l-.18.06-.17-.06c-15.28-5.91-29.46-14.1-60.58-40.45-2.65-2.25-3.92-4-4-5.55a4.3,4.3,0,0,1,1.66-3.18c.74-.78,1.39-1.45,1.29-2.36-.15-1.52-2.29-3.66-6.52-6.54-5.07-3.45-9.21-6.25-12.59-8.54-15.26-10.35-15.26-10.35-17.5-13.33-.68-.91-1.61-2.15-3.31-4.1l-.49-.56.71-.24c44.93-15.15,157.06-44.85,185.69-50.24-21.08-1.17-34.46-15.46-45.43-29-1.86-2.31-3.63-4.77-3.12-7.27a6.18,6.18,0,0,1,2.63-3.63c-2.81.39-5.38.76-7.75,1.11-28.61,4.16-28.61,4.16-52.19-28.24-3.72-5.11-7.94-10.91-13-17.66-2.06-2.76-3.2-4.77-2.53-6.24,1-2.15,5.55-2.5,15.57-3.26l.64,0c33.53-2.52,188.6-28.39,215.49-35.29,16.85-4.34,28.07-4.6,38-4.84,9.74-.23,18.15-.43,29-4.72,12.6-5,31.84-7.92,56.18-11.61,36.11-5.48,80.88-12.28,127.86-29.37-194.89,4.14-330.63,28.48-461.93,52-5.9,1.06-10.59.08-15.2-3.2-3.13-2.27-4.59-5-4.11-7.72.64-3.54,4.57-6.58,10.81-8.32,64.49-18,173-31.1,225.1-37.39,11.78-1.42,21.09-2.54,26.67-3.32,56.16-7.9,129.71-9.86,200.83-11.77,57.25-1.53,111.33-3,153.51-7.37l.15,0,.13.07c9.52,4.9,12.72,10.8,15,15.94,1.41,3.26,1.64,5.43.71,7-1.82,3.17-7.83,3.87-19.81,5.28-9.86,1.16-23.36,2.75-41.39,6.52-20.36,4.25-40.73,8.83-60.42,13.26q-11.5,2.58-23,5.16l.75,1c27.73.91,53.41-.4,76.07-1.55C908,140.73,935,139.36,937.13,153c.84,5.15,1.77,9.51,2.59,13.36,2,9.17,3.14,14.71.28,18.48-4.44,5.87-18.22,6.76-55,9.14-21.09,1.37-50,3.24-88.86,6.83a43.76,43.76,0,0,0-6.38,1.21c-.77.18-1.58.38-2.44.57,6,2.6,12,2.26,34.68.94C842.74,202.3,877.5,200.29,939,199c41.63-.86,84.34-.9,125.64-.94q15.9,0,31.8-.05c12.15,0,19.53,1.69,23.2,5.38a9.28,9.28,0,0,1,2.66,6.9,60.14,60.14,0,0,0,.88,9.74c.67,4.5,1.16,7.76-.78,9.72s-5.43,2.22-12.14,1.31c-22-3-48.37-.53-71.62,1.64-20,1.87-37.29,3.48-47.94,1.35a17.81,17.81,0,0,0-7.12.25c-10.19,3.63-23,3.48-35.3,3.33-5.32-.06-10.82-.12-16,.11-10.54.47-21.29.9-31.68,1.31-11.87.46-24.14.95-36.19,1.5a15.67,15.67,0,0,0-7.94,2.33l3.47.18a82.89,82.89,0,0,0,10.16.17c56.46-3.9,114.54-3.86,163.91-3.3,10.68.12,19.87.15,28,.17,53.11.15,53.11.15,58.87,26.29,1.08,4.86,2.29,10.38,4.09,17l.15.56-.58.07c-10.9,1.23-22.06,1.88-32.85,2.5-17.81,1-34.7,2-50,5.41,9.29.32,17.3.51,24.47.68,48,1.15,48,1.15,51.4,29.1.56,4.65,1.19,9.92,2.16,16.14l.08.55-.55,0c-30.83,1.69-47.1,1.26-60.17.91-15.54-.41-26-.68-50.49,3.19,21.62,4.44,45.33,3.69,83.65,2.46,38.47-1.23,91.15-2.91,172.19-.63,14.88.44,22.37,3.4,24.26,9.59h0a189.38,189.38,0,0,1,5.12,23.16c.59,3.28,1.19,6.68,1.88,10.12l.11.56-.57,0-18.92,1.19c-13,.81-25.26,1.57-37.62,2.4-2.93.19-5.26.66-6.21,1.26-4.6,3-11.65,3-19.11,3H1212a57.46,57.46,0,0,0-14.65,2c-5.61,1.35-9.31,2.24-14.44-2.53-3.4-3.12-67.93,1.62-76.21,3.25-52.21,10.21-60.31,10.47-70.57,10.81-7.88.25-16.82.55-48.23,5.5-1.72.27-8.07,1-16.86,2.07-32.48,3.85-108.56,12.88-116.87,17.57-3.48,1.93-12.13,2.43-19.07,2.24-16.06-.44-19.78,2.06-23.06,4.27-2.89,1.95-5.61,3.78-15.59,3.33-20.34-.92-61.92,10-71.76,14-9.58,3.86-22.91,6-35.81,8.09-3.2.52-6.4,1-9.52,1.58a91,91,0,0,0-9.82,2.4c-6.84,1.94-13.91,4-24.15,2.85a5.43,5.43,0,0,0-2.81.61c-4.62,3.55-12.32,4.37-20.48,5.24-2.68.29-5.46.58-8.08,1-20.87,3.21-29.4,7.23-36.24,10.45-6.58,3.1-11.78,5.55-24.89,5.82A15.41,15.41,0,0,0,547,497.9a28.91,28.91,0,0,1-3.38,1.31c-2.89.86-5.71,1.8-8.45,2.71-9.38,3.12-19.08,6.34-33,6.57-6.67.13-15,1.59-16.78,3.56-3.25,3.63-6.92,4.27-15.79,5.81-9.12,1.59-24.39,4.25-51,12.32-23.83,7.24-27.91,9.72-29.87,10.91-1.8,1.1-1.8,1.1-12.09,2.37-5.67.7-14.22,1.75-27.88,3.58-2.59,2.07-4,3.35-5,4.29-2.42,2.2-2.55,2.25-9.29,4.91s-20.7,8.18-51,21.42c-2.55,1.11-3.9,2.82-5.33,4.63a28.14,28.14,0,0,1-2.39,2.78ZM874.13,396.35a35.86,35.86,0,0,1,7.67.66c1.17.21,2.49.44,4.46.7l3.24.41-3.21.57c-19.88,3.53-199.06,35.54-367.7,74.85-175.17,40.82-268.17,73.44-269,94.3-.24,6.39,8.36,11.88,25.57,16.32a31.13,31.13,0,0,0,2.12-2.48c1.51-1.92,2.93-3.73,5.71-4.94,30.32-13.24,44.31-18.77,51-21.43s6.7-2.65,9-4.72c1-.91,2.51-2.28,5.19-4.42l.11-.09h.14c13.74-1.84,22.34-2.9,28-3.6,10.07-1.25,10.07-1.25,11.69-2.23,2-1.22,6.15-3.74,30.1-11,26.68-8.09,42-10.75,51.14-12.34,8.88-1.55,12.2-2.13,15.22-5.5,2.25-2.49,11.59-3.77,17.5-3.89,13.73-.22,23.36-3.43,32.67-6.52,2.74-.92,5.57-1.86,8.48-2.72a29,29,0,0,0,3.26-1.26,16.19,16.19,0,0,1,6.33-1.77c12.9-.26,18-2.67,24.48-5.72,6.91-3.25,15.5-7.31,36.52-10.54,2.64-.4,5.43-.7,8.13-1,7.66-.81,15.58-1.66,20-5a6.27,6.27,0,0,1,3.52-.8c10,1.08,17-.91,23.76-2.82a94.27,94.27,0,0,1,9.93-2.43c3.13-.54,6.32-1.05,9.53-1.57,12.84-2.08,26.12-4.22,35.6-8,9.88-4,51.7-15,72.18-14,9.65.44,12.12-1.23,15-3.16,3.4-2.29,7.26-4.88,23.65-4.44,6.49.17,15.25-.28,18.55-2.12,8.49-4.78,81.94-13.5,117.24-17.68,8.78-1.05,15.12-1.8,16.82-2.07,31.48-5,40.45-5.25,48.36-5.51,10.21-.34,18.28-.6,70.41-10.79,6.52-1.28,73-6.73,77.08-3,4.74,4.4,7.86,3.65,13.52,2.29a58.52,58.52,0,0,1,14.89-2h1.3c7.31,0,14.21,0,18.57-2.84,1.58-1,5.2-1.31,6.69-1.41,12.35-.82,24.63-1.59,37.62-2.4l18.35-1.15c-.65-3.26-1.22-6.47-1.77-9.59a189.33,189.33,0,0,0-5.09-23h0c-1.76-5.73-9-8.47-23.34-8.89-81-2.29-133.67-.6-172.13.63-39.93,1.28-64,2.05-86.5-3l-2.5-.57,2.53-.41c26.5-4.34,37.17-4.05,53.31-3.63,13,.35,29.1.77,59.53-.88-.92-6-1.53-11.11-2.07-15.63-3.25-27.09-3.25-27.09-50.43-28.22-8.11-.19-17.29-.41-28.18-.81l-3.49-.12,3.39-.86c16.33-4.15,34.52-5.19,53.78-6.3,10.59-.61,21.53-1.24,32.22-2.43-1.72-6.44-2.9-11.79-3.94-16.53-5.59-25.35-5.59-25.35-57.91-25.5-8.1,0-17.28,0-28-.17-49.35-.56-107.4-.6-163.83,3.3a87,87,0,0,1-10.29-.17c-1.65-.1-3.3-.19-4.93-.24l-1.39,0,1.1-.86a16.31,16.31,0,0,1,9.71-3.36c12-.56,24.32-1,36.2-1.51,10.38-.41,21.13-.84,31.66-1.31,5.23-.24,10.75-.17,16.08-.11,12.26.15,24.94.3,35-3.27a18.09,18.09,0,0,1,7.65-.29c10.5,2.1,27.72.5,47.65-1.37,23.3-2.17,49.7-4.64,71.84-1.63,6.28.85,9.76.53,11.3-1s1.13-4.66.5-8.87a61.63,61.63,0,0,1-.89-9.9,8.27,8.27,0,0,0-2.37-6.19c-3.42-3.44-10.77-5.12-22.49-5.08q-15.9,0-31.8.05c-41.3,0-84,.08-125.62.94-61.51,1.26-96.26,3.27-117,4.48-24.57,1.43-29.69,1.72-36.51-1.67l-1.3-.64,1.42-.29c1.42-.3,2.68-.6,3.86-.88a44,44,0,0,1,6.53-1.24c38.88-3.59,67.79-5.46,88.89-6.82,35.45-2.3,50.13-3.25,54.29-8.75,2.58-3.41,1.44-8.78-.46-17.67-.82-3.86-1.76-8.23-2.6-13.41-2-12.73-30-11.31-68.81-9.34-22.76,1.15-48.55,2.46-76.41,1.54h-.25l-.14-.2-1.33-1.83-.46-.62.75-.17q11.93-2.64,23.79-5.33c19.7-4.43,40.06-9,60.43-13.26,18.08-3.78,31.61-5.37,41.49-6.53,11.27-1.33,17.49-2.06,19.06-4.79.75-1.3.51-3.2-.77-6.14-2.17-5-5.25-10.65-14.37-15.38-42.2,4.39-96.24,5.83-153.45,7.36-71.09,1.91-144.6,3.87-200.71,11.76-5.59.78-14.9,1.91-26.69,3.33-52.11,6.28-160.54,19.35-225,37.35-5.84,1.64-9.52,4.38-10.08,7.54-.42,2.31.9,4.69,3.7,6.72,4.37,3.11,8.82,4.05,14.44,3,132-23.67,268.51-48.14,465.08-52.1l2.95-.06-2.77,1c-48.1,17.9-94,24.86-130.86,30.46-24.28,3.68-43.46,6.59-56,11.55-11,4.36-19.52,4.56-29.36,4.79s-21,.5-37.74,4.81c-26.91,6.9-182.1,32.79-215.66,35.31l-.65,0c-9,.68-14,1.06-14.73,2.68-.4.87.3,2.38,2.42,5.22,5,6.76,9.25,12.56,13,17.67,23.22,31.92,23.22,31.92,51.23,27.84,3-.44,6.35-.92,10.07-1.42l2.75-.37-2.45,1.3c-2.47,1.32-3.81,2.69-4.12,4.2-.43,2.07,1.14,4.23,2.92,6.44,11.76,14.53,26.31,29.93,50.23,28.65l.09-.06.12-.1c.11-.34.18-.7.27-1.08.31-1.44.67-3.08,2.69-3.64,22.94-6.41,45.78-12.39,73-15.18l1-.28.74-.19.51,0,.29,0c8.22-5.13,21.14-6.74,34.82-8.46,3.45-.43,7-.87,10.57-1.38l2.69-.39-2.38,1.32c-9.77,5.4-25.88,8.91-45.39,9.9l-.22.12a.85.85,0,0,0-.19.1l-.1.06-2.27.25-9.48,2.59c-9.2,2.51-18.7,5.11-28.29,7.49-5.72,1.42-11.52,2.67-16.64,3.79-9.64,2.09-18,3.9-20.78,5.67a1.32,1.32,0,0,1-.2.46l-.15.22h-.3c-10.84,0-140.65,34-190.67,50.8,1.42,1.66,2.25,2.76,2.87,3.59,2.14,2.85,2.14,2.85,17.27,13.1,3.38,2.29,7.51,5.09,12.58,8.55,4.62,3.14,6.77,5.38,7,7.25.14,1.38-.77,2.33-1.58,3.16s-1.42,1.47-1.37,2.44c.07,1.23,1.26,2.81,3.64,4.83,30.9,26.16,45,34.36,60.13,40.22a111.89,111.89,0,0,0,15.36-7c6.4-3.33,12.45-6.48,21.14-8.55,13.71-3.23,26.83-6.95,40.2-10.8,9.28-2.65,8.84-4.28,8.45-5.72a2.49,2.49,0,0,1,.12-2.2c.76-1.17,3.06-2.5,14.58-4.24,34.12-5.18,52.61-8.53,63.66-10.53,14.85-2.69,14.85-2.69,19-.82l1,.45c.72.16,6.64-1.08,7.7-2.12,6-5.85,15-5.58,25.27-5.26A118.85,118.85,0,0,0,574,374c51-6.86,56.86-8.53,81.58-15.59,5.85-1.66,12.48-3.56,21-5.9a14.07,14.07,0,0,1,3.9-.11c.72,0,1.47.08,2.21.09h.18l.14.12c1.61,1.41,3.2,2.76,4.72,4.07l.43.36c4.37,0,8.12,0,11.73,0l4.3,0-4.19,1q-25.35,5.85-49,11.21c-100.8,22.95-180.42,41.07-269.84,74.47-3.32,1.24-6.73,2.72-6.89,4.22s2.4,3.35,6.27,5.85c6.6,4.28,13.07,8.9,19.34,13.38,9.62,6.87,17.94,12.81,23.43,15.1,11,4.6,13.62,1.83,17-1.68a19.62,19.62,0,0,1,5.42-4.37c26.3-13.32,105.68-39.5,145.14-40.29,4.77-.09,9.16-1.79,13-3.29l.65-.25c15.46-6,24.72-6.36,32.88-6.72,6.79-.3,12.65-.56,20.56-4.05,16.27-7.17,45.42-10,71.13-12.44,18.41-1.77,34.3-3.3,42.15-6.08a31.64,31.64,0,0,1,8.35-1.64l23-1.35C850.3,397.31,866.65,396.35,874.13,396.35ZM497.49,277.88c-24.36,3-45.32,8.54-66.35,14.42-1.44.4-1.69,1.56-2,2.89l0,.17c3.47-1.69,11-3.32,20.21-5.32,5.12-1.11,10.91-2.37,16.62-3.78,9.58-2.38,19.08-5,28.26-7.48ZM549,267.19l-7.63,1c-12.64,1.58-24.64,3.08-32.72,7.34C525.47,274.5,539.58,271.59,549,267.19ZM748,446.71l-2.41-2.62,17-2.58.17.15,1.88,1.68,1.72,1.55Zm-.41-1.91.81.87L764,444.12l0,0-1.7-1.52ZM352.36,362.69l-1.53-1.22L349,360l-.75-.61,4.28-1.23c23.84-6.86,59.86-17.24,84.93-21.61A306.18,306.18,0,0,0,486.25,324c15.9-5.28,27.38-9.09,51.21-8.28,3,.1,5.86,0,8.92-.18a98,98,0,0,1,12.84,0l2.57.21-2.46.77c-5.16,1.61-146.6,32.85-193.07,43.11l-13.66,3Zm-1.95-2.84,1,.84,1.15.92,13.43-3c43.08-9.52,167.78-37.06,189.79-42.3-3.28-.09-6.38.06-9.4.2s-6,.28-9,.18c-23.65-.81-35.07,3-50.87,8.23a306.62,306.62,0,0,1-48.9,12.6c-25,4.36-61,14.73-84.83,21.59Zm366.91-7.64a11.46,11.46,0,0,0-.75-1.2c-.54-.81-.9-1.35-.73-1.84a.72.72,0,0,1,.48-.45c7.47-2.52,16.65-2,25.52-1.45l.37,0-.06,1-.37,0c-8.68-.52-17.66-1-24.92,1.32.12.23.36.58.54.86a13.12,13.12,0,0,1,.81,1.31Zm-.68-2.55h0Zm264.77-1.15a105.4,105.4,0,0,1-10.87-1.09l-3.6-.46,3.59-.53,17-2.55,1.2-.18-.73,1C985.89,347.45,985,348.51,981.41,348.51Zm-7.13-1.63c8.92,1.09,10,.9,12.14-1.83ZM590.22,261.66l-.18-.16c-.51-.45-1.07-.9-1.63-1.35l-.94-.74,1.06-.21,10.79-2.15,9.29-1.84.74.74,1.48,1.52.65.68-.93.16q-8.13,1.32-16.23,2.67Zm-.44-1.69.74.62,3.64-.6,15.28-2.52-.81-.82-.35-.36L599.52,258Z"/><path class="cls-2" d="M282.83,318.74A71,71,0,0,0,309,263.16c0-39.71-28.36-69.56-72.92-77.61,1.94-2.49,3.8-5.47,3.8-9.11,0-9.62-17-18.67-30.26-18.67-9.38,0-9.65,6.35-9.65,7.08,0,3.21,1.93,6.45,6.08,10.15a9.1,9.1,0,0,1,.79,3.58c0,3.76-4,4.77-7.34,5l-.51,0-3.23.93c-23.34,3.8-42.64,13.68-55.84,28.57a73.55,73.55,0,0,0-18.52,48.81c0,39.15,31.63,78.78,92.08,78.78C241.52,340.65,265.49,333.07,282.83,318.74Zm-112.25-20.2c-9-9.47-14-22.34-14-36.24,0-25.33,17.67-52.6,56.46-52.6C256.31,209.7,276,237,276,262.3c0,36.15-32.61,52.61-62.91,52.61C195.45,314.91,180.75,309.25,170.58,298.54Z"/><path class="cls-2" d="M447.49,498.61C440.18,497,431.76,497,425.62,497c-15.37,0-20.3,2.67-25.51,5.5-4,2.14-8.05,4.36-19,5.66-24.1.4-51.38.86-73.54.86-8.52,0-16.27-.14-23.11-.26-5.18-.09-9.65-.17-13.39-.17-4.7,0-5.95-.55-6.23-5.5V465.81c0-.22,0-.39,0-.51.33-.16.87-.36,1.29-.52a31.23,31.23,0,0,0,3.1-1.35c47.61-.46,111.17-1.77,141.42-2.57,17.66,0,19-8,19-10.51,0-5.7-6.17-10.53-16.73-13.29a266,266,0,0,1,13.78-40.3l.05-.12a28.85,28.85,0,0,1,2.66-4.61c1.89-2.87,3.67-5.59,3.67-8.65,0-9.51-13-10.41-20.87-10.93-2.3-.23-4.26-.34-6-.39,5.27-1.5,10.19-7.59,14.08-17.53l.08-.21c5.23-15.71,7.1-41.64,7.1-60.67V170.86a32.16,32.16,0,0,1,.95-7.16,24.76,24.76,0,0,0,.77-5.3c0-8.25-10.36-14.39-33.57-19.88-14.9-3.53-30.92-5.65-32.76-5.65h-.37c-10.17.85-19.58,2.6-19.58,9.64,0,4.52,4.37,8.08,14.08,11.51,27.24,10.22,34.43,19.12,34.43,22.41l.86,171.73c0,16.69,4.29,22.4,8.72,23.85a28.42,28.42,0,0,0-10,1.58,34.33,34.33,0,0,1-5.84,1.44c-38.65,2.44-78.36,3.84-109,3.84-22,0-42.71-.75-58.26-2.12a41.92,41.92,0,0,0-7-.46c-7.55,0-11.37,2.24-11.37,6.65,0,2.15,0,6.64,20.32,15.7,8.4,3.75,20.32,8.12,26.25,8.12,4.72,0,7.78-1.54,11-3.16a42.89,42.89,0,0,1,11.43-4.16l15.14-.63c36.46-1.52,81.28-3.39,106.6-3.62-1.12,18.07-2.4,35.45-3.2,43.68l-2.19.46A117.82,117.82,0,0,1,368.22,442c-40.33,1.69-64.15,1.71-103.17,1.71-6.77-2.47-26-5.15-42.94-5.15-15.47,0-23.82,5.19-23.82,10.08,0,5.19,6,7,11.36,8.6l.21.06c15.8,3.95,18.85,6.36,19.34,7.38v35.48c0,18.91,14,28.11,42.71,28.11H444.08c9.49,0,19.09-4.94,19.09-14.37C463.17,508.56,460.45,501.57,447.49,498.61Z"/><path class="cls-2" d="M646.5,338.85C660.08,352,684.56,367.7,724,367.7c68.45,0,105.39-46.56,105.39-90.37a83.47,83.47,0,0,0-23-57.34c-15.45-16.41-37.72-27.59-64.66-32.5.4-.61.84-1.22,1.29-1.84,1.85-2.57,4-5.48,4-9.21,0-9-15.92-18.24-31.55-18.24-9.1,0-10.08,5-10.08,7.07,0,3.12,2,6.18,7.25,10.85a6.93,6.93,0,0,1,1.77,4.18c0,3.56-4.57,6.23-7.52,6.23h-.36l-.35.06c-27.62,4.36-50.34,15.68-65.7,32.72A83.32,83.32,0,0,0,619,275.18C619,298.74,629.05,322,646.5,338.85ZM724,339c-49.12,0-71.49-32.83-71.49-63.34s22.37-63.33,71.49-63.33c48.82,0,71.06,32.83,71.06,63.33S772.83,339,724,339Z"/><path class="cls-2" d="M868.69,445.85c-12.89,0-17.93,2.64-22.38,5a22.69,22.69,0,0,1-10.94,3.2l-.47.05A241.9,241.9,0,0,1,801.31,457c3.3-15.39,6.9-34.94,9.08-48a44.84,44.84,0,0,1,2.11-4.83c1.41-2.91,2.73-5.65,2.73-8.72,0-9.08-10.21-13.17-49.68-19.89l-.68-.12-.68.09c-8.12,1.11-16.77,2.82-16.77,9.19,0,4.17,4.51,6.88,8.92,8.09l1.52.76c9.56,4.75,15.06,7.75,15.74,13.63-.86,26.42-2.48,43.52-3.37,51.38-26.16,1.43-65.33,2.55-82.69,2.42-.44-12.56-1.11-40.82-1.11-44.51a23.9,23.9,0,0,1,.42-3.77,23.3,23.3,0,0,0,.44-4c0-11.41-11.7-15.33-54.43-18.23l-.45,0-.46.06c-8.32,1.14-17.2,2.91-17.2,9.61,0,4.08,3.84,7.21,10.56,8.63,19.13,7,24.4,9.41,25.6,13,1.16,7.8,1.94,18.1,2.63,27.2.36,4.69.68,9,1,12.47-43.84.72-81.12-.92-108-4.76a39.91,39.91,0,0,0-6.7-.48c-9.1,0-10.08,4.65-10.08,6.64,0,2.37,0,6.76,26.59,18.71,4.14,1.85,25.23,11.13,34.15,11.13,5.53,0,9-2,12.67-4.06a50.92,50.92,0,0,1,7.67-3.75c42.69-4,119.8-6.79,187.89-6.79,38,0,72.91.89,101.06,2.57h3.7c12.51,0,16.95-7.05,16.95-13.08C920.42,453.35,902.54,445.85,868.69,445.85Z"/><path class="cls-2" d="M1314.76,498.61C1307.45,497,1299,497,1292.88,497c-15.36,0-20.29,2.67-25.5,5.5-4,2.14-8.05,4.36-19,5.66-24.1.4-51.38.86-73.54.86-8.52,0-16.27-.14-23.11-.26-5.18-.09-9.65-.17-13.39-.17-4.7,0-6-.55-6.23-5.5V465.81c0-.22,0-.39,0-.51.33-.16.87-.36,1.29-.52a31.23,31.23,0,0,0,3.1-1.35c47.61-.46,111.17-1.77,141.42-2.57,17.66,0,19-8,19-10.51,0-5.7-6.16-10.53-16.73-13.29a266,266,0,0,1,13.79-40.3l0-.12a28.85,28.85,0,0,1,2.66-4.61c1.89-2.87,3.67-5.59,3.67-8.65,0-9.51-13-10.41-20.87-10.93-2.3-.23-4.26-.34-6-.39,5.26-1.5,10.19-7.59,14.08-17.53l.08-.21c5.23-15.71,7.1-41.64,7.1-60.67V170.86a32.16,32.16,0,0,1,1-7.16,25.38,25.38,0,0,0,.76-5.3c0-8.25-10.35-14.39-33.57-19.88-14.89-3.53-30.91-5.65-32.75-5.65h-.37c-10.17.85-19.59,2.6-19.59,9.64,0,4.52,4.37,8.08,14.09,11.51,27.23,10.22,34.43,19.12,34.43,22.41l.86,171.73c0,16.69,4.29,22.4,8.72,23.85a28.33,28.33,0,0,0-10,1.58,34.59,34.59,0,0,1-5.84,1.44c-38.65,2.44-78.36,3.84-109,3.84-22,0-42.7-.75-58.25-2.12a42,42,0,0,0-7-.46c-7.54,0-11.36,2.24-11.36,6.65,0,2.15,0,6.64,20.32,15.7,8.4,3.75,20.32,8.12,26.25,8.12,4.71,0,7.78-1.54,11-3.16a42.75,42.75,0,0,1,11.43-4.16l15.13-.63c36.46-1.52,81.28-3.39,106.61-3.62-1.12,18.07-2.4,35.45-3.2,43.68l-2.2.46a117.43,117.43,0,0,1-16.73,2.66c-40.33,1.69-64.16,1.71-103.17,1.71-6.77-2.47-26-5.15-42.94-5.15-15.47,0-23.82,5.19-23.82,10.08,0,5.19,6,7,11.36,8.6l.2.06c15.81,3.95,18.86,6.36,19.35,7.38v35.48c0,18.91,14,28.11,42.71,28.11h172.16c9.49,0,19.1-4.94,19.1-14.37C1330.44,508.56,1327.72,501.57,1314.76,498.61Z"/><path class="cls-2" d="M1150.1,318.74a71,71,0,0,0,26.21-55.58c0-39.71-28.36-69.56-72.92-77.61,1.94-2.49,3.8-5.47,3.8-9.11,0-9.62-17-18.67-30.26-18.67-9.38,0-9.66,6.35-9.66,7.08,0,3.21,1.94,6.45,6.08,10.15a8.93,8.93,0,0,1,.79,3.58c0,3.76-4,4.77-7.34,5l-.5,0-3.23.93c-23.34,3.8-42.65,13.68-55.84,28.57a73.5,73.5,0,0,0-18.52,48.81c0,39.15,31.63,78.78,92.08,78.78C1108.79,340.65,1132.76,333.07,1150.1,318.74Zm-112.25-20.2c-9-9.47-13.95-22.34-13.95-36.24,0-25.33,17.67-52.6,56.46-52.6,43.22,0,62.91,27.27,62.91,52.6,0,36.15-32.61,52.61-62.91,52.61C1062.71,314.91,1048,309.25,1037.85,298.54Z"/><path class="cls-3" d="M270.83,306.74A71,71,0,0,0,297,251.16c0-39.71-28.36-69.56-72.92-77.61,1.94-2.49,3.8-5.47,3.8-9.11,0-9.62-17-18.67-30.26-18.67-9.38,0-9.65,6.35-9.65,7.08,0,3.21,1.93,6.45,6.08,10.15a9.1,9.1,0,0,1,.79,3.58c0,3.76-4,4.77-7.34,5l-.51,0-3.23.93c-23.34,3.8-42.64,13.68-55.84,28.57a73.55,73.55,0,0,0-18.52,48.81c0,39.15,31.63,78.78,92.08,78.78C229.52,328.65,253.49,321.07,270.83,306.74Zm-112.25-20.2c-9-9.47-14-22.34-14-36.24,0-25.33,17.67-52.6,56.46-52.6C244.31,197.7,264,225,264,250.3c0,36.15-32.61,52.61-62.91,52.61C183.45,302.91,168.75,297.25,158.58,286.54Z"/><path class="cls-4" d="M435.49,486.61C428.18,485,419.76,485,413.62,485c-15.37,0-20.3,2.67-25.51,5.5-4,2.14-8.05,4.36-19,5.66-24.1.4-51.38.86-73.54.86-8.52,0-16.27-.14-23.11-.26-5.18-.09-9.65-.17-13.39-.17-4.7,0-6-.55-6.23-5.5V453.81c0-.22,0-.39,0-.51.33-.16.87-.36,1.29-.52a31.23,31.23,0,0,0,3.1-1.35c47.61-.46,111.17-1.77,141.42-2.57,17.66,0,19-8,19-10.51,0-5.7-6.17-10.53-16.73-13.29a266,266,0,0,1,13.78-40.3l.05-.12a28.85,28.85,0,0,1,2.66-4.61c1.89-2.87,3.67-5.59,3.67-8.65,0-9.51-13-10.41-20.87-10.93-2.3-.23-4.26-.34-6-.39,5.27-1.5,10.19-7.59,14.08-17.53l.08-.21c5.23-15.71,7.1-41.64,7.1-60.67V158.86a32.16,32.16,0,0,1,.95-7.16,24.76,24.76,0,0,0,.77-5.3c0-8.25-10.36-14.39-33.57-19.88-14.9-3.53-30.92-5.65-32.76-5.65h-.37c-10.17.85-19.58,2.6-19.58,9.64,0,4.52,4.37,8.08,14.08,11.51,27.24,10.22,34.43,19.12,34.43,22.41l.86,171.73c0,16.69,4.29,22.4,8.72,23.85a28.42,28.42,0,0,0-10,1.58,34.33,34.33,0,0,1-5.84,1.44c-38.65,2.44-78.36,3.84-109,3.84-22,0-42.71-.75-58.26-2.12a41.92,41.92,0,0,0-7-.46c-7.55,0-11.37,2.24-11.37,6.65,0,2.15,0,6.64,20.32,15.7,8.4,3.75,20.32,8.12,26.25,8.12,4.72,0,7.78-1.54,11-3.16a42.89,42.89,0,0,1,11.43-4.16l15.14-.63c36.46-1.52,81.28-3.39,106.6-3.62-1.12,18.07-2.4,35.45-3.2,43.68l-2.19.46A117.82,117.82,0,0,1,356.22,430c-40.33,1.69-64.15,1.71-103.17,1.71-6.77-2.47-26-5.15-42.94-5.15-15.47,0-23.82,5.19-23.82,10.08,0,5.19,6,7,11.36,8.6l.21.06c15.8,3.95,18.85,6.36,19.34,7.38v35.48c0,18.91,14,28.11,42.71,28.11H432.08c9.49,0,19.09-4.94,19.09-14.37C451.17,496.56,448.45,489.57,435.49,486.61Z"/><path class="cls-5" d="M634.5,326.85C648.08,340,672.56,355.7,712,355.7c68.45,0,105.39-46.56,105.39-90.37a83.47,83.47,0,0,0-23-57.34c-15.45-16.41-37.72-27.59-64.66-32.5.4-.61.84-1.22,1.29-1.84,1.85-2.57,4-5.48,4-9.21,0-9-15.92-18.24-31.55-18.24-9.1,0-10.08,5-10.08,7.07,0,3.12,2,6.18,7.25,10.85a6.93,6.93,0,0,1,1.77,4.18c0,3.56-4.57,6.23-7.52,6.23h-.36l-.35.06c-27.62,4.36-50.34,15.68-65.7,32.72A83.32,83.32,0,0,0,607,263.18C607,286.74,617.05,310,634.5,326.85ZM712,327c-49.12,0-71.49-32.83-71.49-63.34s22.37-63.33,71.49-63.33c48.82,0,71.06,32.83,71.06,63.33S760.83,327,712,327Z"/><path class="cls-6" d="M856.69,433.85c-12.89,0-17.93,2.64-22.38,5a22.69,22.69,0,0,1-10.94,3.2l-.47.05A241.9,241.9,0,0,1,789.31,445c3.3-15.39,6.9-34.94,9.08-48a44.84,44.84,0,0,1,2.11-4.83c1.41-2.91,2.73-5.65,2.73-8.72,0-9.08-10.21-13.17-49.68-19.89l-.68-.12-.68.09c-8.12,1.11-16.77,2.82-16.77,9.19,0,4.17,4.51,6.88,8.92,8.09l1.52.76c9.56,4.75,15.06,7.75,15.74,13.63-.86,26.42-2.48,43.52-3.37,51.38-26.16,1.43-65.33,2.55-82.69,2.42-.44-12.56-1.11-40.82-1.11-44.51a23.9,23.9,0,0,1,.42-3.77,23.3,23.3,0,0,0,.44-4c0-11.41-11.7-15.33-54.43-18.23l-.45,0-.46.06c-8.32,1.14-17.2,2.91-17.2,9.61,0,4.08,3.84,7.21,10.56,8.63,19.13,7,24.4,9.41,25.6,13,1.16,7.8,1.94,18.1,2.63,27.2.36,4.69.68,9,1,12.47-43.84.72-81.12-.92-108-4.76a39.91,39.91,0,0,0-6.7-.48c-9.1,0-10.08,4.65-10.08,6.64,0,2.37,0,6.76,26.59,18.71,4.14,1.85,25.23,11.13,34.15,11.13,5.53,0,9-2,12.67-4.06a50.92,50.92,0,0,1,7.67-3.75c42.69-4,119.8-6.79,187.89-6.79,38,0,72.91.89,101.06,2.57h3.7c12.51,0,16.95-7.05,16.95-13.08C908.42,441.35,890.54,433.85,856.69,433.85Z"/><path class="cls-7" d="M1302.76,486.61C1295.45,485,1287,485,1280.88,485c-15.36,0-20.29,2.67-25.5,5.5-4,2.14-8.05,4.36-19,5.66-24.1.4-51.38.86-73.54.86-8.52,0-16.27-.14-23.11-.26-5.18-.09-9.65-.17-13.39-.17-4.7,0-6-.55-6.23-5.5V453.81c0-.22,0-.39,0-.51.33-.16.87-.36,1.29-.52a31.23,31.23,0,0,0,3.1-1.35c47.61-.46,111.17-1.77,141.42-2.57,17.66,0,19-8,19-10.51,0-5.7-6.16-10.53-16.73-13.29a266,266,0,0,1,13.79-40.3l0-.12a28.85,28.85,0,0,1,2.66-4.61c1.89-2.87,3.67-5.59,3.67-8.65,0-9.51-13-10.41-20.87-10.93-2.3-.23-4.26-.34-6-.39,5.26-1.5,10.19-7.59,14.08-17.53l.08-.21c5.23-15.71,7.1-41.64,7.1-60.67V158.86a32.16,32.16,0,0,1,1-7.16,25.38,25.38,0,0,0,.76-5.3c0-8.25-10.35-14.39-33.57-19.88-14.89-3.53-30.91-5.65-32.75-5.65h-.37c-10.17.85-19.59,2.6-19.59,9.64,0,4.52,4.37,8.08,14.09,11.51,27.23,10.22,34.43,19.12,34.43,22.41l.86,171.73c0,16.69,4.29,22.4,8.72,23.85a28.33,28.33,0,0,0-10,1.58,34.59,34.59,0,0,1-5.84,1.44c-38.65,2.44-78.36,3.84-109,3.84-22,0-42.7-.75-58.25-2.12a42,42,0,0,0-7-.46c-7.54,0-11.36,2.24-11.36,6.65,0,2.15,0,6.64,20.32,15.7,8.4,3.75,20.32,8.12,26.25,8.12,4.71,0,7.78-1.54,11-3.16a42.75,42.75,0,0,1,11.43-4.16l15.13-.63c36.46-1.52,81.28-3.39,106.61-3.62-1.12,18.07-2.4,35.45-3.2,43.68l-2.2.46a117.43,117.43,0,0,1-16.73,2.66c-40.33,1.69-64.16,1.71-103.17,1.71-6.77-2.47-26-5.15-42.94-5.15-15.47,0-23.82,5.19-23.82,10.08,0,5.19,6,7,11.36,8.6l.2.06c15.81,3.95,18.86,6.36,19.35,7.38v35.48c0,18.91,14,28.11,42.71,28.11h172.16c9.49,0,19.1-4.94,19.1-14.37C1318.44,496.56,1315.72,489.57,1302.76,486.61Z"/><path class="cls-8" d="M1138.1,306.74a71,71,0,0,0,26.21-55.58c0-39.71-28.36-69.56-72.92-77.61,1.94-2.49,3.8-5.47,3.8-9.11,0-9.62-17-18.67-30.26-18.67-9.38,0-9.66,6.35-9.66,7.08,0,3.21,1.94,6.45,6.08,10.15a8.93,8.93,0,0,1,.79,3.58c0,3.76-4,4.77-7.34,5l-.5,0-3.23.93c-23.34,3.8-42.65,13.68-55.84,28.57a73.5,73.5,0,0,0-18.52,48.81c0,39.15,31.63,78.78,92.08,78.78C1096.79,328.65,1120.76,321.07,1138.1,306.74Zm-112.25-20.2c-9-9.47-13.95-22.34-13.95-36.24,0-25.33,17.67-52.6,56.46-52.6,43.22,0,62.91,27.27,62.91,52.6,0,36.15-32.61,52.61-62.91,52.61C1050.71,302.91,1036,297.25,1025.85,286.54Z"/></svg>