<svg xmlns="http://www.w3.org/2000/svg" xmlns:xlink="http://www.w3.org/1999/xlink" viewBox="0 0 1657.6 1523.36"><defs><style type="text/css">.cls-1{fill:none;}.cls-2{clip-path:url(#clip-path);}.cls-3{fill:#fff;}</style><clipPath id="clip-path" transform="translate(0 -97.71)"><rect class="cls-1" x="22.8" width="1600" height="1600"/></clipPath></defs><title>Asset 1</title><g id="Layer_2" data-name="Layer 2"><g id="Layer_1-2" data-name="Layer 1"><g class="cls-2"><path class="cls-1" d="M247.16,1292l11.9,49.89,2.54,5.7a3.37,3.37,0,0,1,1-.25,3.62,3.62,0,0,1,2.93,1.16c4,4.34,16.78,5.73,25.65,5.67l9.74-62.44C272.72,1298.4,260.37,1297.48,247.16,1292Z" transform="translate(0 -97.71)"/><polygon class="cls-1" points="297.22 1265.37 291.33 1303.08 319.11 1275.51 297.22 1265.37"/><path class="cls-1" d="M307.42,1297.62l-9,58,26.25,12.16,42.15-41.83C352.58,1323.53,321.94,1316.39,307.42,1297.62Z" transform="translate(0 -97.71)"/><path class="cls-1" d="M284.31,1398.43l5.77-37c-6,0-16.6-.65-24.09-4Z" transform="translate(0 -97.71)"/><path class="cls-1" d="M412.61,1358l-72.26,26.68c-2.14,16.61,16.95,38.47,20.81,42.7l87.25,23.18C435.44,1435.49,413.43,1403.27,412.61,1358Z" transform="translate(0 -97.71)"/><path class="cls-1" d="M337.86,1377.84l68.58-25.33c-18.5-8.73-28.11-18.39-32.32-23.6l-43.31,43Z" transform="translate(0 -97.71)"/><path class="cls-1" d="M239,1390.12a54.44,54.44,0,0,0-4.18-12.69L185,1340.12c6.69,39.39,4.57,69.77,3.32,81.17l47.56-6.7C239.76,1407.69,240.81,1399.47,239,1390.12Z" transform="translate(0 -97.71)"/><path class="cls-1" d="M245.43,1443.08l29.33-26.6-31.6,4.46C245.53,1428.48,245.76,1436.8,245.43,1443.08Z" transform="translate(0 -97.71)"/><path class="cls-1" d="M276.74,1408.83l-31.3-23.45c1.95,7.63,3,17.9-.93,28Z" transform="translate(0 -97.71)"/><path class="cls-1" d="M243.89,1375.1,277,1399.86l-17.38-38.94A114.48,114.48,0,0,1,243.89,1375.1Z" transform="translate(0 -97.71)"/><path class="cls-1" d="M237.77,1370.52a106.33,106.33,0,0,0,18.52-16.94l-4-9a3.69,3.69,0,0,1-.21-.64l-11.4-47.76c-16.2,15.78-34.48,28.22-53.55,36.42Z" transform="translate(0 -97.71)"/><path class="cls-1" d="M507.6,1116.83c-33.18-13.95-79.9-42.59-117.27-100.15l-13.18,45L367,1094.83a3.59,3.59,0,0,1,2.18,1.26c58,70.06,134.55,83.1,146.58,84.75l50.34-48C554.92,1131.54,533.5,1127.71,507.6,1116.83Z" transform="translate(0 -97.71)"/><path class="cls-1" d="M228.83,1215.15l16.24,68.09a3.49,3.49,0,0,1,1.12.32c15.48,7.29,27.27,7.44,56,.35l.93-5.93a3.1,3.1,0,0,1,.11-.51l20.8-67.68C308.67,1214.08,269.33,1223,228.83,1215.15Z" transform="translate(0 -97.71)"/><polygon class="cls-1" points="325.61 1279.35 308.22 1296.61 330.78 1283.71 325.61 1279.35"/><path class="cls-1" d="M331.43,1210.49l-21.16,68.88-1.1,7c10.72,24.88,54.92,31.87,64.1,33.06l65.89-65.4C389.12,1251.61,345.07,1220.94,331.43,1210.49Z" transform="translate(0 -97.71)"/><path class="cls-1" d="M408.93,927.12l5-17,7-42.13C394,870.15,258,878.9,170.73,849.49l12.12,97.31,7.55.35C249.27,950,316,953.1,408.93,927.12Z" transform="translate(0 -97.71)"/><path class="cls-1" d="M393.06,1007.34c36.9,59.62,84.13,88.79,117.37,102.76,31.48,13.23,56.46,15.68,62.64,16.1l67.19-64c-131.55-59.62-178.23-88-226.41-125.85Z" transform="translate(0 -97.71)"/><path class="cls-1" d="M452.25,1459.16,361.4,1435c-2,5.69-5.36,19.53,1.12,34.56a2.8,2.8,0,0,1,.09.31L408.68,1508C424.05,1484.76,443,1467.1,452.25,1459.16Z" transform="translate(0 -97.71)"/><path class="cls-1" d="M521.36,1383.44a232.64,232.64,0,0,1-9.61-48l-91.88,20.25c.16,56.52,36.21,92.94,41.85,98.29l111.59,17.77C555.39,1453.91,534.33,1425.55,521.36,1383.44Z" transform="translate(0 -97.71)"/><path class="cls-1" d="M839.76,1454.9a233.33,233.33,0,0,1-28.45-75c-6.36-32.28-6.64-67.29-.9-104.15l-99.71,18.55c-2.66,106.13,21.07,143.53,75.31,201.6l94.45,8.2C870.44,1495.49,854.45,1479.44,839.76,1454.9Z" transform="translate(0 -97.71)"/><path class="cls-1" d="M978.49,1235.15l-47.31,11.52c47.27,93,114.48,166.61,162.88,212.2,49.55,46.68,89.78,74.13,95.43,77.92l79.9,10.48C1197.84,1479.9,997.66,1256.57,978.49,1235.15Z" transform="translate(0 -97.71)"/><path class="cls-1" d="M1089.05,1464.19c-46-43.3-108.75-111.66-155.78-197.89a570,570,0,0,0,38.66,124.22c23.37,52.55,52.77,96,87.38,129.19l114.52,15A866.35,866.35,0,0,1,1089.05,1464.19Z" transform="translate(0 -97.71)"/><path class="cls-1" d="M965.26,1393.49a577,577,0,0,1-42.43-144.79l-104.78,25.52c-6,36.9-5.92,71.89.37,104a225.93,225.93,0,0,0,27.41,72.56c20.18,33.88,43.49,51.37,47.86,54.47l154.15,13.38C1015.32,1485.7,987.56,1443.65,965.26,1393.49Z" transform="translate(0 -97.71)"/><path class="cls-1" d="M815.56,1267.31l100.06-24.37c-38.86-21-73.86-45.75-104.12-73.83a428.92,428.92,0,0,1-67.13-79c-24.55-37.44-35.34-67.52-39.12-79.84l-54.47,51.92C671.27,1138.79,723.7,1204,815.56,1267.31Z" transform="translate(0 -97.71)"/><path class="cls-1" d="M708.36,1287.34l97.21-18.09C717.31,1207.25,666,1143,644.78,1068L579,1130.61C592.4,1153.8,634.36,1212.72,708.36,1287.34Z" transform="translate(0 -97.71)"/><path class="cls-1" d="M422.1,860.62l12.72-76.87a245.32,245.32,0,0,1-51.37,5.2c-31.21,0-64.84-5.17-99.58-15.44-47-13.9-93-36.18-130.46-63.12l16.31,131C257.64,872.54,400.37,862.39,422.1,860.62Z" transform="translate(0 -97.71)"/><path class="cls-1" d="M423.68,778.45C338,754,272,721.65,222.05,679.89c-37.12-31.06-65.68-67.14-90.78-115.09l20.61,135.41c37.8,28.38,85.34,51.9,134.06,66.3C335.62,781.19,382.88,785.25,423.68,778.45Z" transform="translate(0 -97.71)"/><path class="cls-1" d="M386.16,1004.93l20.36-69.57c-91.82,25-158,21.87-216.47,19.09l-6.29-.3,9.35,75.09C209.24,1030.11,289.67,1032.66,386.16,1004.93Z" transform="translate(0 -97.71)"/><path class="cls-1" d="M191.94,1491.43c6.63-12.23,6.94-26.5.9-42.46a89.13,89.13,0,0,0-10.39-19.48l-75.56,10.65c20.08,12.2,30.74,24.14,34.15,38,3.69,15-1,32.51-15.62,57Z" transform="translate(0 -97.71)"/><path class="cls-1" d="M281.76,1420l-32.88,29.82c8.21,1.52,21.16,4.74,30.14,10.9Z" transform="translate(0 -97.71)"/><path class="cls-1" d="M237.34,1450.41c.62-4,2.29-17.79-1.52-28.44l-45.31,6.39a96.43,96.43,0,0,1,9.16,18c4.65,12.3,5.87,24.11,3.67,34.85Z" transform="translate(0 -97.71)"/><path class="cls-1" d="M117.47,1289.55l-76-56.92c12.36,31.21,16.44,58.16,13.59,88-3.19,33.27-15,70.91-39.26,125l77.46-10.92C118.56,1375.59,133.69,1339.29,117.47,1289.55Z" transform="translate(0 -97.71)"/><path class="cls-1" d="M220,1209.3l-16.22-84.57c-15,23.66-32.36,41.75-54.2,56.44-27.19,18.27-62.63,32.15-108.14,42.33l79.45,59.5C132.16,1276.79,187.7,1245.16,220,1209.3Z" transform="translate(0 -97.71)"/><path class="cls-1" d="M274,1526.25c-8.26-8.62-39.36-21.43-78.43-28.43l-66.19,43.46c41.2-4.31,74.94,8.06,97,20.07a184.05,184.05,0,0,1,37.76,27.18Z" transform="translate(0 -97.71)"/><path class="cls-1" d="M134,1479.86c-3.32-13.47-15.32-25.23-38.83-38.06l-76.91,10.85c11.24,10.47,33.92,35.5,37.26,69.58,2.14,21.76-4,43.28-18.38,64.2l73.55-41.66C130.77,1514.74,137.75,1495.3,134,1479.86Z" transform="translate(0 -97.71)"/><path class="cls-1" d="M71.87,284.05c-12.1,42-40.54,74.94-48.34,83.4l93.26,155.41Z" transform="translate(0 -97.71)"/><path class="cls-1" d="M136.58,559.17c24.92,48.19,53.23,84.22,90.16,115.12,51.14,42.8,119.76,75.56,209.63,100.11l7.3-44.07c-83.11-11.77-165.59-60.92-220.49-100.41A930.38,930.38,0,0,1,136.58,559.17Z" transform="translate(0 -97.71)"/><path class="cls-1" d="M127.52,540.43c5.9,5.86,44.78,43.91,100,83.63,49.82,35.83,122.55,79.7,197.34,95.53C262.76,629.66,133,392.93,81.37,295.05Z" transform="translate(0 -97.71)"/><path class="cls-1" d="M414.34,1512.72l60.57,50.15c7.17-29.12,36.06-49.82,98.4-83.68l-112.24-17.88C455.55,1465.8,432.06,1485.66,414.34,1512.72Z" transform="translate(0 -97.71)"/><path class="cls-1" d="M1012.17,1261.72c65,72.17,218.16,241,269.81,287.21l294.22,42.66c-100-39-206.43-92.67-317.39-160.13C1148.11,1364.15,1062.41,1301,1012.17,1261.72Z" transform="translate(0 -97.71)"/><path class="cls-1" d="M289.18,1418.57l-2.69,39.87a140.73,140.73,0,0,1,26.67-20Z" transform="translate(0 -97.71)"/><path class="cls-1" d="M720.39,1416.31c-12.93-31.09-18.21-68.44-17-120.61L635,1308.41c-.23,2-.5,4.2-.81,6.68-4.25,34.41-14.15,114.56,19.09,169.31L775.19,1495C749.55,1467.09,732.08,1444.43,720.39,1416.31Z" transform="translate(0 -97.71)"/><path class="cls-1" d="M693.46,996.65c-31.09-27.13-123.28-111.83-243.31-260.79L429.21,862.38C446.23,874.58,579.33,968.21,693.46,996.65Z" transform="translate(0 -97.71)"/><path class="cls-1" d="M281.28,1526.65l-8,50.71A169.87,169.87,0,0,1,297.17,1549c19.85-18.81,52.93-40.26,100.71-40.46l-40.69-33.69C335.51,1477.59,300.94,1501.06,281.28,1526.65Z" transform="translate(0 -97.71)"/><path class="cls-1" d="M627,1314.19l.51-4.2L519,1333.89a226.63,226.63,0,0,0,9.44,47.62c8,26,24.59,63.06,57.76,92.33l57.92,9.22C613.08,1426.45,622.73,1348.32,627,1314.19Z" transform="translate(0 -97.71)"/><path class="cls-1" d="M573.59,1135.79l-52.12,49.68c6.62,13,42.11,77.47,110.83,116L699.69,1289C628.89,1217,587.85,1159.93,573.59,1135.79Z" transform="translate(0 -97.71)"/><path class="cls-1" d="M358.77,1096.65l11.38-37,13.58-46.41c-92.59,25.87-169.87,24.32-189.4,23.4l14.39,75C242.85,1118,298.27,1112.41,358.77,1096.65Z" transform="translate(0 -97.71)"/><path class="cls-1" d="M464.51,1174.15a253.91,253.91,0,0,1-99.47-71.6l-.48.13L333.73,1203c10,7.84,58.92,43.91,111.82,43.91h.86l62.66-59.72A231,231,0,0,1,464.51,1174.15Z" transform="translate(0 -97.71)"/><path class="cls-1" d="M446.72,1256.85l-67.38,66.87c3.68,4.69,14.32,16,37.23,25.26l89.75-19.78C493.19,1319.23,464.26,1294.31,446.72,1256.85Z" transform="translate(0 -97.71)"/><path class="cls-1" d="M326.59,1201.4l29.67-96.57c-58.19,14.74-111.61,20-146.07,14.44l16.89,88.08C271.81,1217,317.24,1204.28,326.59,1201.4Z" transform="translate(0 -97.71)"/><path class="cls-1" d="M160.59,1267.42c-14.33,9.48-26.72,16.68-33.28,20.37l53,39.67c20.9-8.26,41-21.89,58.38-39.64L222,1217.92C203.26,1237.6,178.63,1255.49,160.59,1267.42Z" transform="translate(0 -97.71)"/><polygon class="cls-1" points="301.16 1321.3 317.44 1334.78 319.16 1326.09 301.16 1321.3"/><path class="cls-1" d="M427.88,870.4l-6.82,41.19a3.2,3.2,0,0,1-.1.42l-4.9,16.75c60.64,47.85,120.51,78.5,229.9,128l53.64-51.13c-37.12-8.37-97.38-28.82-182.72-78.29C473.65,902.27,439.94,879,427.88,870.4Z" transform="translate(0 -97.71)"/><path class="cls-1" d="M332.94,1388.6,295.55,1410l53.39,14.19C342.25,1415.4,333.53,1401.62,332.94,1388.6Z" transform="translate(0 -97.71)"/><path class="cls-1" d="M354.31,1433.13l-28.08-7.46-2.39,12.11,28.56,23.65A56,56,0,0,1,354.31,1433.13Z" transform="translate(0 -97.71)"/><path class="cls-1" d="M750.68,1086.46c28.53,43.4,82.12,105.25,175.63,153.88L968.82,1230c-56.35-26.9-134.22-72.86-202.42-144.41a520.41,520.41,0,0,1-45.61-54.48A352.54,352.54,0,0,0,750.68,1086.46Z" transform="translate(0 -97.71)"/><path class="cls-1" d="M101.72,1433.5l79.11-11.15c1.14-9.61,4.18-44.39-4.41-88.66l-49.2-36.84C139.23,1343.18,125.06,1378.89,101.72,1433.5Z" transform="translate(0 -97.71)"/><path class="cls-1" d="M541.76,1230.78a287.7,287.7,0,0,1-25.81-40l-63.69,60.7c19.49,43.44,56.41,70.65,63.61,75.67l105.85-23.33C599.4,1290.24,569.63,1267.41,541.76,1230.78Z" transform="translate(0 -97.71)"/><path class="cls-1" d="M278.41,1469.65c-8.06-8.31-27.57-12.4-36.45-13.57l-39.32,35.65c31.23,6.17,59.52,16.41,72.53,26Z" transform="translate(0 -97.71)"/><path class="cls-1" d="M350,1468.89l-30.77-25.48c-5.77,3.18-21.25,12.45-33.47,26.42l-3,43.69C301.93,1492.48,329.43,1474.23,350,1468.89Z" transform="translate(0 -97.71)"/><path class="cls-3" d="M1655.07,1612.08q-11-3.55-22.07-7.38a3.56,3.56,0,0,0,.36-1.13,3.64,3.64,0,0,0-3.08-4.13l-20.53-3c-108.49-39.53-225-97-347.14-171.24-142.71-86.77-243.73-166.65-280.54-197l0,0a3.68,3.68,0,0,0-.75-.48h0c-101.82-46.85-170.06-105.8-209.37-147-42.24-44.27-61-78.08-61.56-79a1.43,1.43,0,0,0-.14-.2,2.2,2.2,0,0,0-.21-.32c-.07-.09-.15-.17-.23-.26l-.26-.25-.09-.09c-1.29-1-108.74-88.6-258.66-275.69a3.41,3.41,0,0,0-1.1-.93h0l-.2-.1C270.93,641,127.5,367.37,80.37,277.44c-2-3.76-3.78-7.22-5.42-10.33a3.58,3.58,0,0,0-.55-.77L15.84,100.15A3.65,3.65,0,0,0,9,102.57L67.83,269.69c-10,51.91-51,94.28-51.46,94.71a3.64,3.64,0,0,0-.52,4.43L116.76,537c-56.25-12.91-99.47-57.69-99.92-58.17a3.65,3.65,0,0,0-5.29,5c1.95,2,47.26,49,107.65,61.13C91.74,615.09,2.93,660.2,2,660.66a3.65,3.65,0,0,0,3.26,6.53,330.35,330.35,0,0,0,51-33.26c22.2-17.46,50.53-44.51,66.24-78.16L144.31,699c-78.16,7.6-132.37-19.39-132.92-19.67a3.65,3.65,0,1,0-3.31,6.51c2.31,1.17,56.77,28.36,137.33,20.39l.67,4.39,16.25,130.54c-95.12,18.28-155.59,9.11-156.2,9A3.65,3.65,0,1,0,5,857.39c.61.1,62,9.45,158.25-9l12.42,99.75C109.34,980.23,6.31,988.81,5.27,988.89a3.65,3.65,0,1,0,.58,7.28C6.9,996.09,109,987.6,176.61,955.8l9.38,75.34c-13.84,11.15-116.22,92.55-167.14,101.41a3.65,3.65,0,1,0,1.25,7.19c23.74-4.13,60-23,107.64-56,26.93-18.64,50.07-36.76,59.68-44.42l14.33,74.7c-15.52,26.5-32.9,45.38-56.23,61.06-27.62,18.57-64.2,32.51-111.8,42.59l-21.79-16.32a3.65,3.65,0,1,0-4.38,5.85L29.91,1224c30.2,67.89,24.87,118.49-23.46,224.59h0l0,.07a3,3,0,0,0-.2.54,1.16,1.16,0,0,1,0,.18,3.54,3.54,0,0,0-.07.47c0,.05,0,.11,0,.16a3.12,3.12,0,0,0,0,.61.59.59,0,0,0,0,.13c0,.17.07.33.11.49l.06.16a2.53,2.53,0,0,0,.25.56.53.53,0,0,0,.06.1c.06.1.12.2.19.3a.69.69,0,0,1,.11.13l.12.14a4,4,0,0,0,.48.44h0c.37.27,36.61,28.39,40.69,69.89,2.43,24.77-7,49.44-28.09,73.32a3.65,3.65,0,0,0,4.54,5.59L114.47,1551c46.34-9.6,84.34,3.74,108.1,16.65,26,14.12,41.1,30.83,41.25,31l0,0a3.28,3.28,0,0,0,.48.43l.08.07a3.81,3.81,0,0,0,.65.38h0a3.86,3.86,0,0,0,.73.23,3.29,3.29,0,0,0,.76.09,3.94,3.94,0,0,0,1-.15h0l0,0a2.45,2.45,0,0,0,.45-.17l.17-.08a2.69,2.69,0,0,0,.29-.16l.09-.07a3.79,3.79,0,0,0,.68-.59h0a1.56,1.56,0,0,0,.16-.2c.05-.07.11-.14.16-.22a1,1,0,0,0,.1-.17l.16-.3v0c.1-.22,10.1-22.3,32.33-43.36,29.09-27.57,64.32-40.43,104.78-38.23L469.62,1568c-43,22.91-73.25,41-73.57,41.21a3.65,3.65,0,0,0,3.76,6.26c.32-.19,31.67-19,75.89-42.43l41.44,34.31a3.65,3.65,0,0,0,4.66-5.62l-40.54-33.56c5.18-29.6,35-50.05,103.91-87.05l58,9.22c-38.93,38.43-55,108.58-55.68,111.69a3.65,3.65,0,1,0,7.13,1.59c.17-.76,17.45-76.21,57.79-111.93l121.06,10.51c-33.61,24.7-98.62,96.54-101.65,99.89a3.65,3.65,0,1,0,5.42,4.89c.8-.88,79.3-87.64,107.91-103.76L886,1511.94l-62.37,93.46a3.66,3.66,0,0,0,6.08,4.06l64.59-96.8,157.4,13.66c-32.83,57.67-46.68,80.94-46.82,81.18a3.65,3.65,0,0,0,6.27,3.74c.14-.24,14.47-24.31,48.5-84.12l123.18,16.15-26.72,58a3.65,3.65,0,0,0,1.79,4.84,3.59,3.59,0,0,0,1.53.34,3.63,3.63,0,0,0,3.31-2.13l27.68-60,84,11c-14.68,24.63-18.14,29.92-21.2,34.62-2.81,4.29-5.45,8.34-15.74,25.64a3.65,3.65,0,0,0,6.28,3.74c10.21-17.18,12.81-21.17,15.57-25.39,3.21-4.92,6.85-10.49,23-37.55L1608,1603.58q22.66,8.24,44.85,15.45a3.65,3.65,0,0,0,2.25-7Zm-465.58-75.29c-5.65-3.79-45.88-31.24-95.43-77.92-48.4-45.59-115.61-119.2-162.88-212.2l47.31-11.52c19.17,21.42,219.35,244.75,290.9,312.12Zm-130.18-17.08c-34.61-33.18-64-76.64-87.38-129.19a570,570,0,0,1-38.66-124.22c47,86.23,109.82,154.59,155.78,197.89a866.35,866.35,0,0,0,84.78,70.54Zm-165.62-14.43c-4.37-3.1-27.68-20.59-47.86-54.47a225.93,225.93,0,0,1-27.41-72.56c-6.29-32.14-6.4-67.13-.37-104l104.78-25.52a577,577,0,0,0,42.43,144.79c22.3,50.16,50.06,92.21,82.58,125.17ZM786,1495.93c-54.24-58.07-78-95.47-75.31-201.6l99.71-18.55c-5.74,36.86-5.46,71.87.9,104.15a233.33,233.33,0,0,0,28.45,75c14.69,24.54,30.68,40.59,40.7,49.23ZM461.72,1454c-5.64-5.35-41.69-41.77-41.85-98.29l91.88-20.25a232.64,232.64,0,0,0,9.61,48c13,42.11,34,70.47,51.95,88.35Zm-99.11,15.87a2.8,2.8,0,0,0-.09-.31c-6.48-15-3.08-28.87-1.12-34.56l90.85,24.14c-9.25,7.94-28.2,25.6-43.57,48.87ZM141,1478.11c-3.41-13.83-14.07-25.77-34.15-38l75.56-10.65A89.13,89.13,0,0,1,192.84,1449c6,16,5.73,30.23-.9,42.46l-66.52,43.69C140,1510.62,144.73,1493.09,141,1478.11Zm42.72-524,6.29.3c58.5,2.78,124.65,5.9,216.47-19.09l-20.36,69.57c-96.49,27.73-176.92,25.18-193,24.31Zm-13-104.66C258,878.9,394,870.15,420.87,868l-7,42.13-5,17c-93,26-159.66,22.83-218.53,20l-7.55-.35ZM151.88,700.21,131.27,564.8c25.1,48,53.66,84,90.78,115.09C272,721.65,338,754,423.68,778.45c-40.8,6.8-88.06,2.74-137.74-11.94C237.22,752.11,189.68,728.59,151.88,700.21Zm132,73.3C318.61,783.78,352.24,789,383.45,789a245.32,245.32,0,0,0,51.37-5.2L422.1,860.62c-21.73,1.77-164.46,11.92-252.38-19.21l-16.31-131C190.87,737.33,236.84,759.61,283.87,773.51Zm421.38,236.8c3.78,12.32,14.57,42.4,39.12,79.84a428.92,428.92,0,0,0,67.13,79c30.26,28.08,65.26,52.88,104.12,73.83l-100.06,24.37C723.7,1204,671.27,1138.79,650.78,1062.23Zm100.32,258.94-97.21,18.09c-74-74.62-116-133.54-129.33-156.73L644.78,1068C666,1143,717.31,1207.25,805.57,1269.25Zm-232.5-143c-6.18-.42-31.16-2.87-62.64-16.1-33.24-14-80.47-43.14-117.37-102.76l20.79-71c48.18,37.84,94.86,66.23,226.41,125.85Zm-57.34,54.64c-12-1.65-88.56-14.69-146.58-84.75a3.59,3.59,0,0,0-2.18-1.26l10.18-33.12,13.18-45c37.37,57.56,84.09,86.2,117.27,100.15,25.9,10.88,47.32,14.71,58.47,16ZM361.16,1427.4c-3.86-4.23-23-26.09-20.81-42.7L412.61,1358c.82,45.25,22.83,77.47,35.8,92.56Zm-172.84-6.11c1.25-11.4,3.37-41.78-3.32-81.17l49.82,37.31a54.44,54.44,0,0,1,4.18,12.69c1.81,9.35.76,17.57-3.12,24.47Zm218.12-68.78-68.58,25.33-7.05-5.95,43.31-43C378.33,1334.12,387.94,1343.78,406.44,1352.51Zm-81.8,15.22-26.25-12.16,9-58c14.52,18.77,45.16,25.91,59.37,28.28Zm-40.33,30.7-18.32-41c7.49,3.4,18.06,4,24.09,4Zm12.91-35.36,21.89,10.14-27.78,27.57Zm-6-8.92c-8.87.06-21.64-1.33-25.65-5.67a3.62,3.62,0,0,0-2.93-1.16,3.37,3.37,0,0,0-1,.25l-2.54-5.7L247.16,1292c13.21,5.5,25.56,6.42,53.8-.27ZM277,1399.86l-33.06-24.76a114.48,114.48,0,0,0,15.68-14.18Zm48.66-22.81,5.17,4.37-22.56,12.89Zm47.66-57.59c-9.18-1.19-53.38-8.18-64.1-33.06l1.1-7,21.16-68.88c13.64,10.45,57.69,41.12,107.73,43.57Zm-70.06-42a3.1,3.1,0,0,0-.11.51l-.93,5.93c-28.71,7.09-40.5,6.94-56-.35a3.49,3.49,0,0,0-1.12-.32l-16.24-68.09c40.5,7.82,79.84-1.07,95.18-5.36ZM252,1343.9a3.69,3.69,0,0,0,.21.64l4,9a106.33,106.33,0,0,1-18.52,16.94l-50.68-38c19.07-8.2,37.35-20.64,53.55-36.42Zm-6.6,41.48,31.3,23.45-32.23,4.54C248.44,1403.28,247.39,1393,245.44,1385.38Zm29.32,31.1-29.33,26.6c.33-6.28.1-14.6-2.27-22.14Zm7,3.51L279,1460.71c-9-6.16-21.93-9.38-30.14-10.9Zm7.42-1.42,24,19.85a140.73,140.73,0,0,0-26.67,20Zm12,.44,18,4.78-1.72,8.7Zm-5.61-9,37.39-21.36c.59,13,9.31,26.8,16,35.55Zm121-61c-22.91-9.29-33.55-20.57-37.23-25.26l67.38-66.87c17.54,37.46,46.47,62.38,59.6,72.35Zm29.84-102.06h-.86c-52.9,0-101.81-36.07-111.82-43.91l30.83-100.33.48-.13a253.91,253.91,0,0,0,99.47,71.6,231,231,0,0,0,44.56,13Zm-62.68-233.71-13.58,46.41-11.38,37c-60.5,15.76-115.92,21.3-150,15l-14.39-75C213.86,1037.53,291.14,1039.08,383.73,1013.21Zm-27.47,91.62-29.67,96.57c-9.35,2.88-54.78,15.57-99.51,5.95l-16.89-88.08C244.65,1124.86,298.07,1119.57,356.26,1104.83ZM222,1217.92l16.68,69.9c-17.42,17.75-37.48,31.38-58.38,39.64l-53-39.67c6.56-3.69,18.95-10.89,33.28-20.37C178.63,1255.49,203.26,1237.6,222,1217.92Zm-45.56,115.77c8.59,44.27,5.55,79,4.41,88.66l-79.11,11.15c23.34-54.61,37.51-90.32,25.5-136.65Zm23.25,112.69a96.43,96.43,0,0,0-9.16-18l45.31-6.39c3.81,10.65,2.14,24.41,1.52,28.44l-34,30.82C205.54,1470.49,204.32,1458.68,199.67,1446.38Zm42.29,9.7c8.88,1.17,28.39,5.26,36.45,13.57l-3.24,48.09c-13-9.6-41.3-19.84-72.53-26Zm43.76,13.75c12.22-14,27.7-23.24,33.47-26.42L350,1468.89c-20.53,5.34-48,23.59-67.19,44.63Zm38.12-32,2.39-12.11,28.08,7.46a56,56,0,0,0-1.91,28.3Zm192-110.68c-7.2-5-44.12-32.23-63.61-75.67l63.69-60.7a287.7,287.7,0,0,0,25.81,40c27.87,36.63,57.64,59.46,80,73Zm116.43-25.61c-68.72-38.55-104.21-103-110.83-116l52.12-49.68c14.26,24.14,55.3,81.25,126.1,153.16ZM968.82,1230l-42.51,10.36c-93.51-48.63-147.1-110.48-175.63-153.88a352.54,352.54,0,0,1-29.89-55.37,520.41,520.41,0,0,0,45.61,54.48C834.6,1157.12,912.47,1203.08,968.82,1230ZM646,1056.74c-109.39-49.48-169.26-80.13-229.9-128L421,912a3.2,3.2,0,0,0,.1-.42l6.82-41.19c12.06,8.55,45.77,31.87,89,56.92,85.34,49.47,145.6,69.92,182.72,78.29ZM450.15,735.86c120,149,212.22,233.66,243.31,260.79C579.33,968.21,446.23,874.58,429.21,862.38ZM436.37,774.4c-89.87-24.55-158.49-57.31-209.63-100.11-36.93-30.9-65.24-66.93-90.16-115.12a930.38,930.38,0,0,0,86.6,70.75c54.9,39.49,137.38,88.64,220.49,100.41Zm-11.48-54.81c-74.79-15.83-147.52-59.7-197.34-95.53-55.25-39.72-94.13-77.77-100-83.63L81.37,295.05C133,392.93,262.76,629.66,424.89,719.59Zm-353-435.54,44.92,238.81L23.53,367.45C31.33,359,59.77,326.06,71.87,284.05Zm77.73,897.12c21.84-14.69,39.24-32.78,54.2-56.44L220,1209.3c-32.32,35.86-87.86,67.49-99.11,73.7l-79.45-59.5C87,1213.32,122.41,1199.44,149.6,1181.17ZM55.06,1320.61c2.85-29.82-1.23-56.77-13.59-88l76,56.92c16.22,49.74,1.09,86-24.21,145.14L15.8,1445.61C40.08,1391.52,51.87,1353.88,55.06,1320.61Zm.41,201.62c-3.34-34.08-26-59.11-37.26-69.58l76.91-10.85c23.51,12.83,35.51,24.59,38.83,38.06,3.8,15.44-3.18,34.88-23.31,64.91l-73.55,41.66C51.43,1565.51,57.61,1544,55.47,1522.23Zm170.83,39.12c-22-12-55.77-24.38-97-20.07l66.19-43.46c39.07,7,70.17,19.81,78.43,28.43l-9.89,62.28A184.05,184.05,0,0,0,226.3,1561.35ZM297.17,1549a169.87,169.87,0,0,0-23.94,28.33l8-50.71c19.66-25.59,54.23-49.06,75.91-51.77l40.69,33.69C350.1,1508.77,317,1530.22,297.17,1549Zm177.74,13.84-60.57-50.15c17.72-27.06,41.21-46.92,46.73-51.41l112.24,17.88C511,1513.05,482.08,1533.75,474.91,1562.87Zm111.25-89c-33.17-29.27-49.72-66.31-57.76-92.33a226.63,226.63,0,0,1-9.44-47.62l108.5-23.9-.51,4.2c-4.22,34.13-13.87,112.26,17.13,168.87Zm48-158.75c.31-2.48.58-4.72.81-6.68l68.36-12.71c-1.18,52.17,4.1,89.52,17,120.61,11.69,28.12,29.16,50.78,54.8,78.68L653.28,1484.4C620,1429.65,629.94,1349.5,634.19,1315.09ZM1282,1548.93c-51.65-46.24-204.8-215-269.81-287.21,50.24,39.24,135.94,102.43,246.64,169.74,111,67.46,217.37,121.12,317.39,160.13Z" transform="translate(0 -97.71)"/></g></g></g></svg>