<?xml version="1.0" encoding="UTF-8"?>
<svg width="1600px" height="563px" viewBox="0 0 1600 563" version="1.1" xmlns="http://www.w3.org/2000/svg" xmlns:xlink="http://www.w3.org/1999/xlink">
    <!-- Generator: Sketch 55.2 (78181) - https://sketchapp.com -->
    <title>Artboard</title>
    <desc>Created with Sketch.</desc>
    <defs>
        <polygon id="path-1" points="0.879756863 0.409280817 222.617548 0.409280817 222.617548 488.885513 0.879756863 488.885513"></polygon>
        <polygon id="path-3" points="0.120655597 0.0238067164 68.6380075 0.0238067164 68.6380075 68.0636425 0.120655597 68.0636425"></polygon>
    </defs>
    <g id="Artboard" stroke="none" stroke-width="1" fill="none" fill-rule="evenodd">
        <g id="Group-17" transform="translate(1.000000, 43.000000)">
            <path d="M139.438112,426.195687 C171.409997,372.805407 369.264049,133.644211 369.264049,107.199308 C369.264049,49.8314959 286.773325,20 215.495752,20 C129.805221,20 -4.36261677,69.4740294 0.108965417,92.9292163 C4.46122781,116.305611 51.5663559,120.183925 84.193045,118.726274 C116.742613,117.169404 223.57312,85.9853137 241.942549,85.9853137 C249.880226,85.9853137 274.761314,85.9853137 274.761314,95.2083455 C274.761314,118.135335 32.1303249,341.262376 32.1303249,439.963845 C32.1303249,471.493744 68.946303,495 111.411055,495 C205.052359,495 404.202923,425.331894 393.592192,396.351059 C382.917435,367.34396 208.236161,421.017307 139.438112,426.195687" id="Fill-1" fill="#FEFEFE"></path>
            <g id="Group-5" transform="translate(377.000000, 0.000000)">
                <mask id="mask-2" fill="white">
                    <use xlink:href="#path-1"></use>
                </mask>
                <g id="Clip-4"></g>
                <path d="M222.617548,85.8563614 C222.617548,72.6342575 204.28345,54.828316 191.133737,54.828316 C160.190665,56.5142582 163.560443,65.7329785 154.375175,74.3989548 C137.288711,128.314103 128.113646,226.327724 115.530907,287.158736 C113.793548,295.680328 101.120443,358.72815 90.224051,355.302303 C72.4685869,324.945135 67.8482601,288.278809 67.8482601,253.234254 C67.8482601,202.212625 77.6267373,151.243501 93.6462993,103.055597 C99.4224366,85.2642398 111.490672,65.7329785 116.046868,48.5454102 L116.046868,42.8560845 C116.046868,6.17663243 89.1177961,0.408551603 58.199502,0.408551603 C53.6185281,0.408551603 49.553515,1.00067317 45.0250118,1.49070482 C4.31658039,49.1389902 0.879756863,185.000264 0.879756863,247.493883 C0.879756863,285.433416 34.0367961,486.620576 75.8908353,486.620576 C85.0250902,486.620576 94.2249333,488.885513 103.461214,488.885513 C148.712724,488.885513 173.867999,365.679015 178.524763,330.685505 C187.121195,269.341127 205.378044,209.707485 214.035692,148.282893 C216.877848,128.843512 222.617548,105.927241 222.617548,85.8563614" id="Fill-3" fill="#FEFEFE" mask="url(#mask-2)"></path>
            </g>
            <path d="M939.441366,132.200993 C887.164173,132.200993 835.440496,275.388811 814.206857,316.088391 C811.886185,270.813223 815.458472,86.9870068 795.267602,60.6770062 C779.799862,39.9725027 767.137667,36 741.906748,36 C624.176086,36 586.852551,379.073026 589.094358,467.854893 L589.70191,479.298964 C598.301103,481.587487 608.137306,483.337019 617.884421,483.337019 C635.018546,483.337019 643.706827,473.591496 654.575576,460.447421 C666.603931,338.938658 677.034542,241.646574 733.294411,130.490792 C736.20949,180.924241 726.875686,473.024828 788.32019,473.024828 C814.206857,473.024828 838.316143,445.530506 849.776378,424.930887 C869.965788,388.821463 890.03836,352.749915 912.408237,317.813159 C919.820076,375.049538 914.09653,435.203747 925.028079,492.480914 C927.272807,506.252839 932.533387,520 949.138825,520 C966.27149,520 998,496.492748 998,478.155431 C998,406.554238 992.210734,334.966155 992.210734,263.969505 C992.210734,218.088337 1010.01521,132.200993 939.441366,132.200993" id="Fill-6" fill="#FEFEFE"></path>
            <path d="M1139.32141,238.081653 C1154.77594,213.521992 1288.9678,154.981646 1280.07286,72.859594 C1275.55342,32.4733723 1233.84739,23.4823004 1201.18027,22.0918834 C1165.45656,20.7670521 1022.85544,33.5037966 1021.03341,77.581765 C1020.59572,90.1785934 1024.58877,103.646983 1025.39872,116.29628 C1026.63037,147.30083 1027.91437,174.037938 1027.91437,205.030828 C1028.27209,276.16363 1024.79525,380.800527 1044.76779,418.343244 C1049.05603,426.451095 1057.21954,429.858637 1064.79267,430.131182 C1077.36075,430.632548 1097.64156,423.850986 1120.90043,413.635647 C1112.32686,365.04101 1105.94612,324.475521 1101.99233,283.1128 C1145.77776,301.793068 1212.33493,329.237043 1202.53989,375.887429 C1197.1625,401.722368 1176.30149,414.98817 1105.94612,438.196766 C1073.34152,448.900354 1049.53008,459.950817 1036.77005,465.767541 C1030.39076,468.971038 1021.46965,473.731103 1021.11048,481.786486 C1020.36596,499.515031 1059.56796,509.472399 1072.10987,510 L1105.42118,509.022044 C1157.11128,505.343415 1287.60673,446.378948 1289.86791,389.100763 C1293.69229,290.897095 1213.78471,268.651881 1139.32141,238.081653 M1098.08943,212.377885 C1097.64156,190.801645 1097.96292,168.014255 1098.87321,142.889099 C1099.33708,130.859222 1095.09973,109.34711 1099.25856,98.0386762 C1120.54272,85.765404 1152.46532,80.0652772 1176.46872,79.8597753 C1187.80369,79.7548382 1203.42545,84.3633273 1202.75801,99.7351599 C1201.64123,129.187515 1138.44892,171.309572 1098.08943,212.377885" id="Fill-8" fill="#FEFEFE"></path>
            <path d="M1492.93756,37.9310837 C1478.59654,20.7534995 1463.05569,19 1441.89958,19 C1341.98828,19 1311,277.663055 1311,354.59675 C1311,395.868175 1317.88077,437.192119 1331.0497,476.729009 C1335.741,477.295031 1340.82786,477.874182 1345.40385,477.874182 C1359.20335,477.874182 1389.86905,471.486017 1401.38857,463.965809 C1396.80236,437.553905 1389.86905,413.123077 1387.40808,386.854138 C1386.51916,378.290875 1385.11644,369.701353 1384.90771,361.021385 C1419.87791,353.628095 1447.51776,356.294814 1483.0543,351.118927 C1498.55428,418.185176 1511.87793,460.242905 1577.32261,492.86208 L1587.96489,495.875998 C1607.33293,499.753537 1565.56954,412.260916 1551.39638,294.134571 C1541.03873,221.785941 1540.51034,94.7476761 1492.93756,37.9310837 M1382.49783,290.540043 C1383.01455,283.587315 1407.93508,98.1613107 1440.28813,98.1613107 C1448.35414,98.1613107 1452.73599,133.123348 1453.89641,140.645014 C1461.85878,188.214158 1461.85878,236.377041 1469.87224,284.604112 C1469.87224,284.604112 1413.44817,287.07535 1382.49783,290.540043" id="Fill-10" fill="#FEFEFE"></path>
            <path d="M1556.0814,53.2301599 L1562.73582,53.2301599 L1573.90391,70 L1580,70 L1568.45577,52.7387414 C1574.65766,52.1050315 1579.33882,48.8279302 1579.33882,41.706029 C1579.33882,33.8066598 1574.56509,30 1565.60241,30 L1550,30 L1550,70 L1556.0814,70 L1556.0814,53.2301599 Z M1556.0814,35.5669649 L1564.43432,35.5669649 C1568.78049,35.5669649 1573.22803,36.2021417 1573.22803,41.446384 C1573.22803,47.4548922 1568.3397,47.7277395 1562.73582,47.7277395 L1556.0814,47.7277395 L1556.0814,35.5669649 Z" id="Fill-12" fill="#FEFEFE"></path>
            <g id="Group-16" transform="translate(1530.000000, 16.000000)">
                <mask id="mask-4" fill="white">
                    <use xlink:href="#path-3"></use>
                </mask>
                <g id="Clip-15"></g>
                <path d="M34.3404504,68.0636425 C53.2981146,68.0636425 68.6390287,52.8277731 68.6390287,34.0510194 C68.6390287,15.2465455 53.2981146,0.0238067164 34.3404504,0.0238067164 C15.4075884,0.0238067164 0.120655597,15.2465455 0.120655597,34.0510194 C0.120655597,52.8277731 15.4075884,68.0636425 34.3404504,68.0636425 M34.3404504,5.57367239 C49.9235511,5.57367239 62.5318422,18.2738776 62.5318422,34.0510194 C62.5318422,49.7887694 49.9235511,62.5254485 34.3404504,62.5254485 C18.7573496,62.5254485 6.23805485,49.7887694 6.23805485,34.0510194 C6.23805485,18.2738776 18.7573496,5.57367239 34.3404504,5.57367239" id="Fill-14" fill="#FEFEFE" mask="url(#mask-4)"></path>
            </g>
        </g>
    </g>
</svg>